HIERARCHY
ROOT joint_Root
{
	OFFSET 0.0 0.0 0.0
	CHANNELS 6 Xposition Yposition Zposition Zrotation Xrotation Yrotation 
	JOINT Hips
	{
		OFFSET -0.726466 93.3139 -2.00062
		CHANNELS 6 Xposition Yposition Zposition Zrotation Xrotation Yrotation 
		JOINT Spine
		{
			OFFSET 15.7357 0.0 0.0
			CHANNELS 6 Xposition Yposition Zposition Zrotation Xrotation Yrotation 
			JOINT Chest
			{
				OFFSET 8.98455 -0.406207 0.0
				CHANNELS 6 Xposition Yposition Zposition Zrotation Xrotation Yrotation 
				JOINT Neck
				{
					OFFSET 16.3773 0.0 0.0
					CHANNELS 6 Xposition Yposition Zposition Zrotation Xrotation Yrotation 
					JOINT Head
					{
						OFFSET 6.45672 0.0 0.0
						CHANNELS 6 Xposition Yposition Zposition Zrotation Xrotation Yrotation 
						End Site
						{
							OFFSET 0.0 0.0 0.0
						}
					}
				}
				JOINT Shoulder_L
				{
					OFFSET 12.9942 -0.242716 4.98039
					CHANNELS 6 Xposition Yposition Zposition Zrotation Xrotation Yrotation 
					JOINT UpperArm_L
					{
						OFFSET 5.34809 0.0 0.0
						CHANNELS 6 Xposition Yposition Zposition Zrotation Xrotation Yrotation 
						JOINT LowerArm_L
						{
							OFFSET 24.3286 1.87007e-05 0.0
							CHANNELS 6 Xposition Yposition Zposition Zrotation Xrotation Yrotation 
							JOINT Hand_L
							{
								OFFSET 22.2916 0.0 0.0
								CHANNELS 6 Xposition Yposition Zposition Zrotation Xrotation Yrotation 
								End Site
								{
									OFFSET 0.0 0.0 0.0
								}
							}
						}
					}
				}
				JOINT Shoulder_R
				{
					OFFSET 12.9945 -0.242716 -4.98039
					CHANNELS 6 Xposition Yposition Zposition Zrotation Xrotation Yrotation 
					JOINT UpperArm_R
					{
						OFFSET -5.34813 0.0 0.0
						CHANNELS 6 Xposition Yposition Zposition Zrotation Xrotation Yrotation 
						JOINT LowerArm_R
						{
							OFFSET -24.3289 0.000322201 0.0
							CHANNELS 6 Xposition Yposition Zposition Zrotation Xrotation Yrotation 
							JOINT Hand_R
							{
								OFFSET -22.2915 -0.000108084 0.0
								CHANNELS 6 Xposition Yposition Zposition Zrotation Xrotation Yrotation 
								End Site
								{
									OFFSET 0.0 0.0 0.0
								}
							}
						}
					}
				}
			}
		}
		JOINT UpperLeg_L
		{
			OFFSET -2.19248 -6.46944 0.0
			CHANNELS 6 Xposition Yposition Zposition Zrotation Xrotation Yrotation 
			JOINT LowerLeg_L
			{
				OFFSET 39.0811 0.0 -1.23785e-05
				CHANNELS 6 Xposition Yposition Zposition Zrotation Xrotation Yrotation 
				JOINT Foot_L
				{
					OFFSET 40.9854 0.0 -1.26872e-05
					CHANNELS 6 Xposition Yposition Zposition Zrotation Xrotation Yrotation 
					JOINT Toes_L
					{
						OFFSET 11.7543 0.0 0.0
						CHANNELS 6 Xposition Yposition Zposition Zrotation Xrotation Yrotation 
						End Site
						{
							OFFSET 0.0 0.0 0.0
						}
					}
				}
			}
		}
		JOINT UpperLeg_R
		{
			OFFSET -2.19251 6.46944 0.0
			CHANNELS 6 Xposition Yposition Zposition Zrotation Xrotation Yrotation 
			JOINT LowerLeg_R
			{
				OFFSET -39.0811 -0.00228153 -0.0401928
				CHANNELS 6 Xposition Yposition Zposition Zrotation Xrotation Yrotation 
				JOINT Foot_R
				{
					OFFSET -40.9854 0.0 0.0
					CHANNELS 6 Xposition Yposition Zposition Zrotation Xrotation Yrotation 
					JOINT Toes_R
					{
						OFFSET -11.7543 0.0 0.0
						CHANNELS 6 Xposition Yposition Zposition Zrotation Xrotation Yrotation 
						End Site
						{
							OFFSET 0.0 0.0 0.0
						}
					}
				}
			}
		}
	}
}
MOTION
Frames:	8
Frame Time:	0.0333333
0.000000 0.000000 0.000000 0.000000 0.000000 -0.000000 -3.149800 91.925600 0.450132 88.570100 3.002700 3.255940 15.735700 0.000005 -0.000001 62.976000 86.133200 -58.089600 8.984550 -0.406207 -0.000000 -0.692518 -3.873150 9.748120 16.377300 -0.000001 -0.000001 0.858289 -1.189040 -0.517008 6.456720 -0.000001 -0.000000 -1.561740 -0.852998 4.470330 12.994200 -0.242716 4.980390 -84.858800 -10.814400 -64.381100 5.348090 -0.000007 -0.000001 -68.853100 -57.005100 -96.961400 24.328600 0.000019 0.000005 1.517790 1.118340 -53.624000 22.291600 -0.000001 0.000005 20.290800 5.648830 -14.904200 12.994500 -0.242716 -4.980390 91.101000 -2.864150 -68.962900 -5.348130 -0.000001 -0.000004 -65.552600 75.820200 18.113600 -24.328900 0.000322 -0.000009 29.324600 1.973440 -86.492600 -22.291500 -0.000108 -0.000004 45.527300 5.679600 -19.442200 -2.192480 -6.469440 -0.000000 -167.903000 -17.042400 -1.904560 39.081100 -0.000007 -0.000012 -0.147890 0.415741 19.582000 40.985400 -0.000006 -0.000013 -8.202170 1.370960 -61.793400 11.754300 -0.000000 0.000003 -0.000088 -0.000922 -16.613000 -2.192510 6.469440 -0.000001 174.644000 23.377200 -179.656000 -39.081100 -0.002282 -0.040193 -0.080674 0.222480 20.683300 -40.985400 0.000008 0.000006 -4.037140 -2.158820 -65.734200 -11.754300 -0.000006 -0.000006 -0.003197 -0.042815 -18.314400
0.000000 0.000000 0.000000 0.000000 0.000000 -0.000000 -3.154890 91.923300 0.398129 88.552200 2.979980 3.266660 15.735700 0.000005 -0.000001 63.111400 86.113100 -58.256700 8.984550 -0.406207 -0.000000 -0.649591 -3.870950 9.685980 16.377300 -0.000001 -0.000001 0.864219 -1.210850 -0.502176 6.456720 -0.000001 -0.000000 -1.549850 -0.886276 4.515870 12.994200 -0.242716 4.980390 -84.837500 -10.848600 -64.357800 5.348090 -0.000007 -0.000001 -68.734400 -57.092500 -96.765000 24.328600 0.000019 0.000005 1.450170 1.066450 -53.676100 22.291600 -0.000001 0.000005 20.255000 5.648660 -14.889200 12.994500 -0.242716 -4.980390 91.101200 -2.866780 -68.975900 -5.348130 -0.000001 -0.000004 -65.917700 75.704700 18.413800 -24.328900 0.000322 -0.000009 29.248200 1.998550 -86.437000 -22.291500 -0.000108 -0.000004 45.566700 5.679820 -19.525400 -2.192480 -6.469440 -0.000000 -167.896000 -16.989500 -1.953480 39.081100 -0.000007 -0.000012 -0.147836 0.414255 19.640200 40.985400 -0.000006 -0.000013 -8.203420 1.324560 -61.803700 11.754300 -0.000000 0.000003 -0.000088 -0.000923 -16.613100 -2.192510 6.469440 -0.000001 174.682000 23.356400 -179.717000 -39.081100 -0.002282 -0.040193 -0.079753 0.219387 20.739800 -40.985400 0.000008 0.000006 -4.003110 -2.167220 -65.730300 -11.754300 -0.000006 -0.000006 -0.003317 -0.044143 -18.368500
0.000000 0.000000 0.000000 0.000000 0.000000 -0.000000 -3.156980 91.925300 0.356894 88.472000 2.920740 3.322390 15.735700 0.000005 -0.000001 63.465400 86.090200 -58.612500 8.984550 -0.406207 -0.000000 -0.588097 -3.845760 9.684350 16.377300 -0.000001 -0.000001 0.922974 -1.212910 -0.526939 6.456720 -0.000001 -0.000000 -1.545430 -0.907464 4.480270 12.994200 -0.242716 4.980390 -84.828600 -10.864900 -64.352100 5.348090 -0.000007 -0.000001 -68.671800 -57.114700 -96.649100 24.328600 0.000019 0.000005 1.258820 0.928054 -53.605500 22.291600 -0.000001 0.000005 20.250700 5.649780 -14.993800 12.994500 -0.242716 -4.980390 91.103400 -2.873740 -68.984600 -5.348130 -0.000001 -0.000004 -66.244700 75.610900 18.715900 -24.328900 0.000322 -0.000009 29.262200 2.000270 -86.436000 -22.291500 -0.000108 -0.000004 45.534300 5.679650 -19.461800 -2.192480 -6.469440 -0.000000 -167.790000 -16.979100 -1.928030 39.081100 -0.000007 -0.000012 -0.149398 0.417623 19.684000 40.985400 -0.000006 -0.000013 -8.216180 1.307520 -61.815300 11.754300 -0.000000 0.000003 -0.000084 -0.000883 -16.611500 -2.192510 6.469440 -0.000001 174.777000 23.377600 -179.727000 -39.081100 -0.002282 -0.040193 -0.076427 0.210340 20.763400 -40.985400 0.000008 0.000006 -3.827990 -2.169600 -65.697900 -11.754300 -0.000006 -0.000006 -0.003398 -0.045027 -18.404400
0.000000 0.000000 0.000000 0.000000 0.000000 -0.000000 -3.145350 91.922100 0.330262 88.482400 2.813980 3.339390 15.735700 0.000005 -0.000001 63.770600 86.086000 -58.952000 8.984550 -0.406207 -0.000000 -0.565075 -3.808670 9.616530 16.377300 -0.000001 -0.000001 0.960494 -1.190900 -0.617596 6.456720 -0.000001 -0.000000 -1.492960 -0.880282 4.536060 12.994200 -0.242716 4.980390 -84.808000 -10.891100 -64.316200 5.348090 -0.000007 -0.000001 -68.726400 -57.111800 -96.683700 24.328600 0.000019 0.000005 1.291420 0.954776 -53.528900 22.291600 -0.000001 0.000005 20.235500 5.649700 -14.987300 12.994500 -0.242716 -4.980390 91.086300 -2.831590 -69.000400 -5.348130 -0.000001 -0.000004 -66.363600 75.546700 18.870200 -24.328900 0.000322 -0.000009 29.295900 2.003810 -86.434600 -22.291500 -0.000108 -0.000004 45.539500 5.679820 -19.521700 -2.192480 -6.469440 -0.000000 -167.817000 -16.986300 -1.935120 39.081100 -0.000007 -0.000012 -0.149010 0.415220 19.741700 40.985400 -0.000006 -0.000013 -8.212460 1.211030 -61.848200 11.754300 -0.000000 0.000003 -0.000083 -0.000881 -16.611500 -2.192510 6.469440 -0.000001 174.735000 23.344900 -179.741000 -39.081100 -0.002282 -0.040193 -0.079823 0.219237 20.768600 -40.985400 0.000008 0.000006 -3.995220 -2.064520 -65.664900 -11.754300 -0.000006 -0.000006 -0.003148 -0.042270 -18.292200
0.000000 0.000000 0.000000 0.000000 0.000000 -0.000000 -3.137480 91.931200 0.316053 88.493500 2.771440 3.377320 15.735700 0.000005 -0.000001 63.725800 86.067000 -58.942400 8.984550 -0.406207 -0.000000 -0.534291 -3.827160 9.547250 16.377300 -0.000001 -0.000001 0.995644 -1.164530 -0.627068 6.456720 -0.000001 -0.000000 -1.430800 -0.835516 4.499430 12.994200 -0.242716 4.980390 -84.790600 -10.905000 -64.268900 5.348090 -0.000007 -0.000001 -68.760000 -57.102400 -96.758100 24.328600 0.000019 0.000005 1.351310 1.002420 -53.437200 22.291600 -0.000001 0.000005 20.259400 5.649080 -14.928300 12.994500 -0.242716 -4.980390 91.072300 -2.795950 -69.007500 -5.348130 -0.000001 -0.000004 -66.283200 75.533700 18.794100 -24.328900 0.000322 -0.000009 29.217000 2.022790 -86.389300 -22.291500 -0.000108 -0.000004 45.510000 5.680090 -19.625500 -2.192480 -6.469440 -0.000000 -167.844000 -16.917100 -1.872230 39.081100 -0.000007 -0.000012 -0.147738 0.412951 19.685400 40.985400 -0.000006 -0.000013 -8.219850 1.078770 -61.830400 11.754300 -0.000000 0.000003 -0.000090 -0.000943 -16.613800 -2.192510 6.469440 -0.000001 174.712000 23.323900 -179.701000 -39.081100 -0.002282 -0.040193 -0.076999 0.212005 20.749500 -40.985400 0.000008 0.000006 -3.862240 -2.028420 -65.645300 -11.754300 -0.000006 -0.000006 -0.003260 -0.043512 -18.342800
0.000000 0.000000 0.000000 0.000000 0.000000 -0.000000 -3.126090 91.927000 0.293307 88.465800 2.695220 3.374050 15.735700 0.000005 -0.000001 63.660100 86.065500 -58.880300 8.984550 -0.406207 -0.000000 -0.535459 -3.836310 9.540080 16.377300 -0.000001 -0.000001 1.068540 -1.136750 -0.742206 6.456720 -0.000001 -0.000000 -1.438860 -0.829114 4.497070 12.994200 -0.242716 4.980390 -84.794700 -10.879400 -64.234800 5.348090 -0.000007 -0.000001 -68.849500 -57.099100 -96.860000 24.328600 0.000019 0.000005 1.292530 0.962115 -53.342400 22.291600 -0.000001 0.000005 20.285800 5.649060 -14.926700 12.994500 -0.242716 -4.980390 91.067800 -2.782960 -68.998600 -5.348130 -0.000001 -0.000004 -66.195400 75.515900 18.723300 -24.328900 0.000322 -0.000009 29.322300 2.032320 -86.387900 -22.291500 -0.000108 -0.000004 45.501500 5.679810 -19.520400 -2.192480 -6.469440 -0.000000 -167.831000 -16.857300 -1.911260 39.081100 -0.000007 -0.000012 -0.149977 0.417601 19.755400 40.985400 -0.000006 -0.000013 -8.239960 0.939482 -61.876000 11.754300 -0.000000 0.000003 -0.000085 -0.000892 -16.611900 -2.192510 6.469440 -0.000001 174.733000 23.291000 -179.740000 -39.081100 -0.002282 -0.040193 -0.079136 0.217544 20.758400 -40.985400 0.000008 0.000006 -3.938150 -1.981420 -65.618800 -11.754300 -0.000006 -0.000006 -0.003246 -0.043357 -18.336500
0.000000 0.000000 0.000000 0.000000 0.000000 -0.000000 -3.099770 91.921500 0.283489 88.468500 2.580870 3.356800 15.735700 0.000005 -0.000001 63.909400 86.077300 -59.148800 8.984550 -0.406207 -0.000000 -0.543970 -3.794260 9.501400 16.377300 -0.000001 -0.000001 1.072750 -1.117290 -0.767021 6.456720 -0.000001 -0.000000 -1.402000 -0.827368 4.481140 12.994200 -0.242716 4.980390 -84.781900 -10.899500 -64.220100 5.348090 -0.000007 -0.000001 -69.053200 -57.101700 -97.058200 24.328600 0.000019 0.000005 1.268080 0.945349 -53.300500 22.291600 -0.000001 0.000005 20.234200 5.649300 -14.948700 12.994500 -0.242716 -4.980390 91.053600 -2.747180 -69.007900 -5.348130 -0.000001 -0.000004 -66.311300 75.417900 18.877900 -24.328900 0.000322 -0.000009 29.235000 2.029720 -86.379700 -22.291500 -0.000108 -0.000004 45.441400 5.680220 -19.677700 -2.192480 -6.469440 -0.000000 -167.848000 -16.911200 -1.931250 39.081100 -0.000007 -0.000012 -0.152179 0.422246 19.819500 40.985400 -0.000006 -0.000013 -8.230300 0.905459 -61.929400 11.754300 -0.000000 0.000003 -0.000094 -0.000972 -16.614900 -2.192510 6.469440 -0.000001 174.719000 23.225700 -179.795000 -39.081100 -0.002282 -0.040193 -0.080288 0.220197 20.791600 -40.985400 0.000008 0.000006 -4.000110 -1.922680 -65.612500 -11.754300 -0.000006 -0.000006 -0.003494 -0.046073 -18.447000
0.000000 0.000000 0.000000 0.000000 0.000000 -0.000000 -3.074450 91.929800 0.283645 88.440500 2.509410 3.382020 15.735700 0.000005 -0.000001 64.033800 86.072500 -59.276500 8.984550 -0.406207 -0.000000 -0.528574 -3.782230 9.495330 16.377300 -0.000001 -0.000001 1.113170 -1.101770 -0.778407 6.456720 -0.000001 -0.000000 -1.444880 -0.838439 4.495300 12.994200 -0.242716 4.980390 -84.785700 -10.879000 -64.194600 5.348090 -0.000007 -0.000001 -69.232800 -57.082600 -97.260800 24.328600 0.000019 0.000005 1.312340 0.978556 -53.295000 22.291600 -0.000001 0.000005 20.283300 5.649180 -14.937800 12.994500 -0.242716 -4.980390 91.048700 -2.734020 -69.004500 -5.348130 -0.000001 -0.000004 -66.446400 75.277800 19.019800 -24.328900 0.000322 -0.000009 29.181800 2.044670 -86.345100 -22.291500 -0.000108 -0.000004 45.417300 5.680610 -19.839700 -2.192480 -6.469440 -0.000000 -167.826000 -16.938700 -1.879160 39.081100 -0.000007 -0.000012 -0.150928 0.419193 19.801300 40.985400 -0.000006 -0.000013 -8.222600 0.862575 -61.934900 11.754300 -0.000000 0.000003 -0.000086 -0.000900 -16.612200 -2.192510 6.469440 -0.000001 174.742000 23.175900 -179.762000 -39.081100 -0.002282 -0.040193 -0.076353 0.210309 20.748600 -40.985400 0.000008 0.000006 -3.849350 -1.897710 -65.580100 -11.754300 -0.000006 -0.000006 -0.003180 -0.042619 -18.306400
